<!--?xml version="1.0" encoding="utf-8"?-->
<!-- Generator: Adobe Illustrator 22.1.0, SVG Export Plug-In . SVG Version: 6.00 Build 0)  -->
<svg version="1.1" id="_x30_" xmlns="http://www.w3.org/2000/svg" xmlns:xlink="http://www.w3.org/1999/xlink" x="0px" y="0px" viewBox="0 0 600 450" style="width: 600px; height: 450px;" xml:space="preserve">
<style type="text/css">
	.st0{fill:#040000;}
</style>
<g>
	<polygon class="st0" points="600,207.575 600,205.106 540.793,210.025 	"></polygon>
	<polygon class="st0" points="600,189.511 600,188.571 526.742,197.822 	"></polygon>
	<polygon class="st0" points="600,178.617 600,177.782 495.437,194.512 	"></polygon>
	<polygon class="st0" points="600,170.907 600,168.386 499.667,188.162 	"></polygon>
	<polygon class="st0" points="600,150.043 600,147.978 528.919,167.02 	"></polygon>
	<polygon class="st0" points="600,139.834 600,138.046 536.885,157.05 	"></polygon>
	<polygon class="st0" points="600,117.731 600,115.979 517.773,146.5 	"></polygon>
	<polygon class="st0" points="600,106.818 600,104.504 486.953,150.635 	"></polygon>
	<polygon class="st0" points="600,70.679 600,64.713 488.209,126.344 	"></polygon>
	<polygon class="st0" points="600,43.569 600,36.801 482.097,112.857 	"></polygon>
	<polygon class="st0" points="486.66,89.666 600,11.904 600,2.84 	"></polygon>
	<polygon class="st0" points="585.947,0 581.478,0 441.279,112.951 	"></polygon>
	<polygon class="st0" points="546.843,0 540.174,0 459.814,77.3 	"></polygon>
	<polygon class="st0" points="528.296,0 520.505,0 423.142,101.499 	"></polygon>
	<polygon class="st0" points="487.034,0 485.712,0 437.001,59.603 	"></polygon>
	<polygon class="st0" points="469.882,0 467.932,0 406.764,82.777 	"></polygon>
	<polygon class="st0" points="454.715,0 451.16,0 407.006,67.56 	"></polygon>
	<polygon class="st0" points="407.895,0 367.174,88.804 414.105,0 	"></polygon>
	<polygon class="st0" points="399.436,0 395.886,0 371.071,61.242 	"></polygon>
	<polygon class="st0" points="384.341,0 370.515,37.605 384.991,0 	"></polygon>
	<polygon class="st0" points="355.392,0 343.105,55.847 359.299,0 	"></polygon>
	<polygon class="st0" points="325.516,53.852 333.842,0 333.246,0 	"></polygon>
	<polygon class="st0" points="319.635,0 313.877,80.158 323.483,0 	"></polygon>
	<polygon class="st0" points="297.876,52.792 298.807,0 295.642,0 	"></polygon>
	<polygon class="st0" points="283.55,0 290.542,79.959 287.102,0 	"></polygon>
	<polygon class="st0" points="264.28,0 260.549,0 272.205,58.585 	"></polygon>
	<polygon class="st0" points="239.213,0 236.743,0 252.3,51.944 	"></polygon>
	<polygon class="st0" points="211.5,0 207.085,0 231.819,55.845 	"></polygon>
	<polygon class="st0" points="180.654,0 178.624,0 210.035,56.815 	"></polygon>
	<polygon class="st0" points="165.171,0 162.257,0 197.589,55.912 	"></polygon>
	<polygon class="st0" points="136.495,0 131.25,0 174.253,54.649 	"></polygon>
	<polygon class="st0" points="105.811,0 102.89,0 190.958,99.595 	"></polygon>
	<polygon class="st0" points="69.125,0 62.851,0 144.03,75.006 	"></polygon>
	<polygon class="st0" points="48.986,0 41.682,0 128.129,73.11 	"></polygon>
	<polygon class="st0" points="2.904,0 0,0 0,1.559 120.789,90.404 	"></polygon>
	<polygon class="st0" points="0,15.3 0,22.62 108.496,93.528 	"></polygon>
	<polygon class="st0" points="0,63.148 0,66.31 93.421,114.65 	"></polygon>
	<polygon class="st0" points="0,89.136 0,91.318 113.307,141.133 	"></polygon>
	<polygon class="st0" points="0,113.713 0,115.049 83.167,145.049 	"></polygon>
	<polygon class="st0" points="0,123.219 0,125.377 73.982,149.137 	"></polygon>
	<polygon class="st0" points="0,134.98 0,138.277 91.854,163.696 	"></polygon>
	<polygon class="st0" points="0,156.458 0,158.528 108.799,181.978 	"></polygon>
	<polygon class="st0" points="0,166.615 0,168.419 42.644,175.693 	"></polygon>
	<polygon class="st0" points="0,186.819 0,187.955 43.933,192.896 	"></polygon>
	<polygon class="st0" points="0,195.159 0,196.235 72.303,202.76 	"></polygon>
	<polygon class="st0" points="0,212.977 0,214.383 58.685,215.895 	"></polygon>
	<polygon class="st0" points="0,229.66 0,231.81 100.445,228.815 	"></polygon>
	<polygon class="st0" points="0,238.389 0,240.951 100.803,234.74 	"></polygon>
	<polygon class="st0" points="0,259.371 0,260.858 90.911,249.473 	"></polygon>
	<polygon class="st0" points="0,269.62 0,271.453 39.657,264.513 	"></polygon>
	<polygon class="st0" points="0,290.616 0,292.515 114.334,266.195 	"></polygon>
	<polygon class="st0" points="0,310.053 0,312.883 102.462,281.93 	"></polygon>
	<polygon class="st0" points="0,320.595 0,322.192 66.871,299.903 	"></polygon>
	<polygon class="st0" points="0,330.879 0,333.394 87.262,300.966 	"></polygon>
	<polygon class="st0" points="0,355.388 0,357.583 117.288,305.076 	"></polygon>
	<polygon class="st0" points="0,379.25 0,382.839 140.893,307.751 	"></polygon>
	<polygon class="st0" points="0,410.732 0,416.672 151.635,318.304 	"></polygon>
	<polygon class="st0" points="0,429.054 0,434.095 108.741,356.673 	"></polygon>
	<polygon class="st0" points="0.199,450 2.3,450 121.039,359.784 	"></polygon>
	<polygon class="st0" points="62.721,450 72.204,450 166.709,354.017 	"></polygon>
	<polygon class="st0" points="102.043,450 107.775,450 158.487,388.246 	"></polygon>
	<polygon class="st0" points="119.734,450 121.733,450 185.296,368.97 	"></polygon>
	<polygon class="st0" points="151.843,450 192.492,387.288 150.045,450 	"></polygon>
	<polygon class="st0" points="167.269,450 192.174,407.063 166.217,450 	"></polygon>
	<polygon class="st0" points="195.216,450 199.22,450 237.251,362.378 	"></polygon>
	<polygon class="st0" points="229.033,450 249.988,379.219 225.016,450 	"></polygon>
	<polygon class="st0" points="251.908,450 253.809,450 269.013,372.901 	"></polygon>
	<polygon class="st0" points="266.509,450 276.191,382.707 265.553,450 	"></polygon>
	<polygon class="st0" points="279.122,450 281.908,410.219 276.919,450 	"></polygon>
	<polygon class="st0" points="301.438,450 304.322,450 302.319,406.207 	"></polygon>
	<polygon class="st0" points="315.049,450 316.607,450 310.517,374.507 	"></polygon>
	<polygon class="st0" points="327.879,450 329.792,450 323.116,405.384 	"></polygon>
	<polygon class="st0" points="351.897,450 353.146,450 344.77,416.798 	"></polygon>
	<polygon class="st0" points="362.321,450 365.225,450 348.988,397.853 	"></polygon>
	<polygon class="st0" points="375.364,450 377.244,450 352.163,378.818 	"></polygon>
	<polygon class="st0" points="400.728,450 404.855,450 380.249,400.692 	"></polygon>
	<polygon class="st0" points="416.543,450 418.358,450 379.334,376.983 	"></polygon>
	<polygon class="st0" points="430.339,450 431.172,450 394.142,386.997 	"></polygon>
	<polygon class="st0" points="457.66,450 465.367,450 391.763,352.871 	"></polygon>
	<polygon class="st0" points="510.247,450 514.615,450 429.221,361.879 	"></polygon>
	<polygon class="st0" points="531.778,450 533.131,450 459.015,378.918 	"></polygon>
	<polygon class="st0" points="551.808,450 555.984,450 448.332,356.459 	"></polygon>
	<polygon class="st0" points="595.692,450 600,450 600,444.022 437.339,327.359 	"></polygon>
	<polygon class="st0" points="600,432.022 600,429.621 478.283,347.31 	"></polygon>
	<polygon class="st0" points="600,402.944 600,401.306 475.709,328.739 	"></polygon>
	<polygon class="st0" points="600,391 600,385.338 510.196,339.286 	"></polygon>
	<polygon class="st0" points="600,352.336 600,349.492 495.146,306.898 	"></polygon>
	<polygon class="st0" points="600,338.549 600,336.418 532.221,312.064 	"></polygon>
	<polygon class="st0" points="600,327.815 600,325.291 509.293,295.842 	"></polygon>
	<polygon class="st0" points="600,304.365 600,303.666 544.954,289.517 	"></polygon>
	<polygon class="st0" points="600,294.804 600,294.323 530.839,278.526 	"></polygon>
	<polygon class="st0" points="600,274.723 600,273.725 553.622,266.613 	"></polygon>
	<polygon class="st0" points="600,265.17 600,263.936 496.606,250.921 	"></polygon>
	<polygon class="st0" points="600,247.879 600,245.692 498.691,239.427 	"></polygon>
	<polygon class="st0" points="600,239.012 600,238.196 547.169,236.208 	"></polygon>
	<polygon class="st0" points="600,222.702 600,218.813 493.585,222.263 	"></polygon>
</g>
</svg>
