<!--?xml version="1.0" encoding="utf-8"?-->
<!-- Generator: Adobe Illustrator 22.1.0, SVG Export Plug-In . SVG Version: 6.00 Build 0)  -->
<svg version="1.1" id="_x32_" xmlns="http://www.w3.org/2000/svg" xmlns:xlink="http://www.w3.org/1999/xlink" x="0px" y="0px" viewBox="0 0 800 127.1" style="enable-background:new 0 0 800 127.1;" xml:space="preserve">
<style type="text/css">
	.stblack{fill:#000000;}
	.st0{fill:#FFFFFF;}
</style>
<g>
	<path class="st0" d="M746.8,14.4c-17.4-9.5-38.1-8.1-54.6,1.7c-1.3-0.9-2.7-1.8-4.1-2.6c-18.6-10.1-41.1-7.9-58.1,4l0,0.5
		c-1.1-0.7-2.2-1.4-3.4-2.1c-15.6-8.5-34-8.3-49.5-1c-18-10-40.4-9.2-57.6,2.6c-14.6-8.6-32.4-9.9-48-3.7c-17.8-8.9-39.4-7.6-56,4.1
		c-14.7-8.9-32.8-10.3-48.5-4.1c-17.3-8.7-38.2-7.7-54.6,3.1c-14.4-8.1-31.7-9.1-46.9-3.1c-17.6-8.9-39-7.6-55.5,3.7
		c-14.6-8.6-32.4-9.9-48-3.7c-17.6-8.9-39-7.6-55.5,3.7c-21-12.4-48.5-9.6-66.5,8.5c-21.4,21.4-21.4,56,0,77.4
		c18.9,18.9,48.3,21.1,69.6,6.5c14.6,8.6,32.4,9.9,48,3.7c17.6,8.9,39,7.6,55.5-3.7c14.6,8.6,32.4,9.9,48,3.7
		c17.3,8.7,38.2,7.7,54.6-3.1c14.4,8.1,31.7,9.1,46.9,3.1c17.8,8.9,39.4,7.6,56-4.1c14.7,8.9,32.8,10.3,48.5,4.1
		c17.6,8.9,39,7.6,55.5-3.7c15.7,9.3,34.9,10,51.2,2.3c15.6,8.8,35.2,9.7,51.6,1.2c2.7-1.5,5.3-3.1,7.7-5
		c15.9,9.9,36.5,11.4,53.8,2.5c1.3-0.7,2.7-1.5,3.9-2.3c16,10.5,37.2,12.2,54.8,3.2c11.3-6.2,20.3-15.2,25.4-27.1
		c0.6-1.7,1.1-2.8,1.7-3.9C781.7,56.1,769.9,27.3,746.8,14.4z"></path>
	<path class="stblack" d="M516.7,103.9c2.2,0.8,5.6,2.5,10.1,4.3c4.5,1.8,10,3.4,16.2,4.4c6.1,0.9,11.8,1,16.5,0.7c1.2,0,2.3-0.2,3.4-0.3
		c0.5-0.1,1.1-0.1,1.5-0.1c0.5-0.1,1-0.1,1.4-0.2c1.9-0.2,3.4-0.4,4.6-0.4c1.5,0,2.3,2,1,3c-0.5,0.4-1.1,0.8-1.8,1.3
		c-0.7,0.5-1.5,0.8-2.5,1.3c-0.5,0.2-1,0.4-1.5,0.7c-0.5,0.2-1.1,0.4-1.6,0.6c-1.1,0.4-2.3,0.8-3.6,1.1c-5.2,1.3-11.8,1.7-18.8,0.7
		c-7.2-1.2-13.5-3.7-18-6.6c-2.3-1.5-4.2-2.9-5.6-4.3c-1.5-1.3-2.4-2.7-3.1-3.7C514.3,105.1,515.4,103.5,516.7,103.9z"></path>
	<path class="stblack" d="M575.1,15.3c-2.3-0.3-6.1-1.4-10.9-2.2c-4.8-0.8-10.6-1.3-16.9-0.8c-6.2,0.5-11.8,1.8-16.4,3.2c-1.2,0.3-2.2,0.8-3.3,1.1
		c-1,0.3-2,0.7-2.9,1c-1.8,0.6-3.2,1.2-4.4,1.5c-1.5,0.4-2.7-1.4-1.7-2.6c0.8-1,2-2.2,3.6-3.4c0.8-0.6,1.7-1.3,2.7-1.9
		c1-0.6,2.1-1.3,3.3-1.9c4.8-2.5,11.2-4.6,18.3-5.1c7.4-0.5,14.3,0.7,19.4,2.6c2.6,1,4.8,2,6.5,3.1c1.8,1,3,2.2,3.8,3
		C577.3,13.6,576.5,15.4,575.1,15.3z"></path>
	<path class="stblack" d="M567,105.8c2.9,1.3,7.5,4,13.9,6.1c1.6,0.6,3.3,1,5.1,1.5c0.9,0.2,1.8,0.4,2.7,0.6c0.5,0.1,0.9,0.2,1.4,0.3
		c0.5,0.1,1,0.1,1.4,0.2c0.5,0.1,1,0.1,1.5,0.2c0.5,0.1,1,0.1,1.5,0.2c1,0.1,2,0.2,3.1,0.2c1,0,2.1,0,3.1,0c0.5,0,1.1,0,1.6,0
		c0.5,0,1.1-0.1,1.6-0.1c4.2-0.3,8.3-1,12-2c0.9-0.3,1.8-0.6,2.7-0.9c0.9-0.3,1.8-0.6,2.6-0.9c0.8-0.3,1.7-0.6,2.5-1
		c0.8-0.4,1.6-0.7,2.3-1.1c0.8-0.3,1.5-0.7,2.2-1.1c0.7-0.4,1.4-0.7,2-1.1c1.3-0.8,2.5-1.5,3.6-2.1c1.1-0.7,2-1.4,3-1.9
		c0.9-0.6,1.6-1.1,2.3-1.6c1.7-1.1,3.4,0.4,2.2,2.3c-0.5,0.7-1,1.6-1.7,2.5c-0.7,0.9-1.6,1.8-2.5,2.9c-1,1-2.2,2-3.4,3.1
		c-0.7,0.5-1.3,1-2,1.5c-0.7,0.5-1.4,1.1-2.2,1.6c-0.8,0.5-1.6,1-2.5,1.5c-0.8,0.5-1.8,0.9-2.7,1.4c-0.5,0.2-0.9,0.5-1.4,0.7
		c-0.5,0.2-1,0.4-1.5,0.6c-1,0.4-2,0.8-3.1,1.2c-4.2,1.4-8.9,2.4-13.8,2.7c-0.6,0-1.3,0.1-1.9,0.1c-0.6,0-1.3,0.1-1.9,0
		c-1.2,0-2.5-0.1-3.7-0.1c-1.2-0.1-2.4-0.3-3.6-0.4c-1.2-0.1-2.3-0.4-3.4-0.6c-0.6-0.1-1.1-0.2-1.7-0.4c-0.5-0.2-1.1-0.3-1.6-0.5
		c-1-0.3-2.1-0.6-3.1-1c-2-0.8-3.8-1.5-5.5-2.3c-6.8-3.4-11-7.5-12.9-10C564.2,106.7,565.3,105,567,105.8z"></path>
	<path class="stblack" d="M635.4,24.1c-2.5-1.2-6.6-3.7-12-5.9c-1.3-0.6-2.8-1-4.3-1.6c-1.6-0.4-3.1-1-4.8-1.3c-1.7-0.4-3.4-0.7-5.2-1
		c-0.9-0.1-1.8-0.2-2.8-0.3c-0.9-0.1-1.9-0.1-2.8-0.2c-3.8-0.1-7.4,0-10.8,0.5c-3.4,0.5-6.6,1.1-9.4,1.9c-1.4,0.4-2.7,0.8-4,1.2
		c-1.2,0.5-2.4,0.8-3.5,1.2c-1.1,0.4-2,0.8-2.9,1.1c-0.9,0.3-1.6,0.6-2.3,0.9c-1.7,0.6-3-1.2-1.6-2.7c2-2.3,6.1-5.6,12.2-8.2
		c3-1.3,6.5-2.4,10.3-3.2c3.8-0.7,8-1.1,12.4-0.9c1.1,0.1,2.2,0.1,3.3,0.2c1.1,0.1,2.2,0.3,3.2,0.4c2.1,0.4,4.2,0.8,6.1,1.5
		c0.5,0.1,1,0.3,1.4,0.4c0.5,0.2,0.9,0.3,1.4,0.5c0.9,0.4,1.8,0.7,2.6,1.1c1.7,0.8,3.3,1.6,4.7,2.4c5.8,3.5,9.2,7.3,10.7,9.7
		C638.1,23.2,636.9,24.8,635.4,24.1z"></path>
	<path class="stblack" d="M632.8,106.7c0.7,0.3,1.5,0.6,2.5,1c0.9,0.4,2,0.8,3.1,1.2c2.3,0.9,5.1,1.8,8.2,2.5c3.1,0.7,6.7,1.3,10.4,1.5
		c3.8,0.2,7.9,0,12-0.6c4.1-0.6,8-1.6,11.5-2.8c3.5-1.2,6.7-2.7,9.6-4.3c2.8-1.5,5.2-3.1,7.2-4.6c2-1.5,3.7-2.7,4.9-3.7
		c1.6-1.2,3.3,0.2,2.3,2.1c-0.7,1.5-2,3.4-3.8,5.5c-1.8,2.1-4.2,4.3-7.1,6.5c-2.9,2.1-6.4,4.2-10.4,5.8c-4,1.7-8.4,2.9-13.1,3.6
		c-4.9,0.7-9.6,0.7-14,0.2c-4.4-0.5-8.4-1.6-11.8-2.9c-3.4-1.3-6.3-2.9-8.5-4.5c-1.1-0.8-2.1-1.5-2.8-2.3c-0.4-0.4-0.8-0.7-1.1-1
		c-0.3-0.3-0.6-0.7-0.8-1C630.1,107.8,631.1,106.1,632.8,106.7z"></path>
	<path class="stblack" d="M703.9,29.2c-2.5-1.9-6.5-5.7-12.2-9.3c-0.4-0.2-0.7-0.4-1.1-0.7c-0.4-0.2-0.8-0.4-1.1-0.6c-0.8-0.4-1.6-0.9-2.4-1.3
		c-1.7-0.7-3.4-1.6-5.2-2.3c-1.8-0.8-3.8-1.3-5.8-1.9c-1-0.2-2-0.5-3.1-0.7c-1-0.2-2.1-0.3-3.2-0.5c-4.2-0.6-8.4-0.7-12.3-0.5
		c-1.9,0.2-3.8,0.3-5.6,0.7c-0.9,0.2-1.8,0.2-2.6,0.5c-0.9,0.2-1.7,0.4-2.5,0.6c-0.8,0.1-1.6,0.4-2.4,0.6c-0.8,0.2-1.5,0.4-2.2,0.6
		c-1.4,0.5-2.8,0.9-4,1.3c-1.2,0.5-2.3,0.9-3.3,1.2c-1,0.4-1.9,0.8-2.6,1c-1.9,0.7-3.2-1.1-1.6-2.7c0.6-0.6,1.3-1.3,2.2-2.1
		c0.9-0.7,2-1.5,3.1-2.3c1.2-0.7,2.6-1.5,4-2.3c0.8-0.3,1.5-0.7,2.3-1.1c0.8-0.4,1.6-0.8,2.5-1c0.9-0.3,1.8-0.6,2.7-1
		c0.9-0.3,1.9-0.5,2.9-0.8c2-0.6,4.1-0.9,6.4-1.2C661.2,3,666,3,670.9,3.7c1.3,0.2,2.5,0.4,3.8,0.7c1.2,0.3,2.4,0.6,3.6,0.9
		c2.3,0.8,4.6,1.5,6.7,2.5c0.5,0.2,1,0.5,1.6,0.7c0.5,0.2,1,0.5,1.5,0.8c1,0.6,1.9,1.1,2.8,1.6c1.7,1.2,3.4,2.3,4.9,3.6
		c5.9,4.9,9,9.9,10.3,12.8C706.8,29,705.3,30.3,703.9,29.2z"></path>
	<path class="stblack" d="M694.1,109c1,0.5,2.1,0.9,3.3,1.4c1.2,0.5,2.5,1,3.9,1.4c2.8,0.9,6,1.7,9.6,2.3c3.6,0.6,7.5,0.8,11.7,0.6
		c4.2-0.2,8.7-1,13.1-2.4c9-2.8,18-8.8,24.8-17.7c3.4-4.4,6.3-9.5,8.5-15.1c2.1-5.4,3-11.3,2.8-17.4c-0.3-6-1.6-11.9-3.7-17.3
		c-1.1-2.7-2.3-5.3-3.7-7.7c-1.4-2.5-3-4.7-4.8-6.9c-1.7-2.1-3.6-4.1-5.6-5.9c-2-1.8-4-3.4-6.1-4.8c-2.1-1.4-4.3-2.7-6.5-3.7
		c-2.2-1.1-4.4-1.9-6.7-2.6c-9-2.7-17.7-2.6-24.8-1.3c-3.6,0.6-6.8,1.5-9.6,2.5c-1.4,0.5-2.7,1-3.9,1.5c-0.6,0.3-1.2,0.5-1.7,0.7
		c-0.5,0.3-1.1,0.5-1.6,0.8c-1.3,0.6-2.2,1-3,1.2c-0.7,0.2-1.2,0.1-1.4-0.2c-0.2-0.3,0-0.8,0.5-1.4c0.5-0.7,1.3-1.5,2.6-2.4
		c1.9-1.4,4.4-2.8,7.3-4.2c2.9-1.4,6.3-2.6,10.1-3.6c7.6-2,17.3-2.7,27.6,0c2.6,0.7,5.2,1.5,7.7,2.7c1.3,0.5,2.5,1.2,3.8,1.8
		c1.2,0.7,2.5,1.4,3.7,2.2c2.5,1.5,4.9,3.3,7.1,5.3c2.3,2,4.5,4.2,6.5,6.6c4.1,4.8,7.4,10.4,9.9,16.6c2.4,6.2,4,12.9,4.3,19.9
		c0.3,7.2-0.9,14.5-3.5,21c-1.3,3.2-2.8,6.2-4.4,9c-0.8,1.4-1.7,2.8-2.6,4.2c-1,1.3-1.9,2.6-2.9,3.9c-2,2.5-4.2,4.8-6.5,6.8
		c-1.1,1.1-2.4,2-3.5,2.9c-1.2,0.9-2.4,1.8-3.7,2.6c-5,3.2-10.3,5.4-15.4,6.8c-5.2,1.4-10.2,1.9-14.8,1.8c-4.6-0.1-8.9-0.7-12.7-1.6
		c-3.8-0.9-7.1-2.2-9.9-3.5c-1.4-0.7-2.7-1.3-3.8-2c-1.2-0.7-2.2-1.3-3.1-2c-2-1.4-2.8-2.7-2.6-3.3
		C690.6,107.8,691.8,107.9,694.1,109z"></path>
	<path class="stblack" d="M527,24.7c-0.6-0.4-1.3-0.8-2.2-1.3c-0.8-0.5-1.8-1-2.8-1.6c-2.1-1.1-4.5-2.4-7.3-3.6c-2.8-1.2-6-2.2-9.6-3
		c-3.5-0.8-7.3-1.2-11.3-1.3c-3.9-0.1-7.7,0.2-11.2,0.7c-3.5,0.6-6.8,1.4-9.7,2.3c-2.9,0.9-5.5,1.9-7.6,2.8c-2.2,1-4,1.8-5.3,2.4
		c-1.7,0.7-3.1-0.9-1.8-2.6c2-2.5,6.1-6.1,12.4-9.1c3.1-1.5,6.7-2.8,10.7-3.6c4-0.9,8.3-1.3,12.9-1.2c4.7,0.1,9.2,0.8,13.2,2
		c4,1.2,7.6,2.8,10.6,4.6c3,1.8,5.4,3.7,7.3,5.5c0.9,0.9,1.7,1.8,2.3,2.6c0.3,0.4,0.6,0.8,0.9,1.1c0.2,0.4,0.5,0.7,0.6,1.1
		C529.8,24,528.5,25.5,527,24.7z"></path>
	<path class="stblack" d="M468.2,112.7c2.3,0.2,5.9,1.1,10.5,1.8c1.2,0.2,2.4,0.3,3.7,0.5c1.3,0.1,2.6,0.3,4,0.3c2.7,0.2,5.7,0.2,8.7,0
		c3-0.2,5.8-0.6,8.5-1c2.6-0.5,5.1-1.1,7.3-1.7c4.5-1.2,7.9-2.6,10.1-3.2c1.4-0.4,2.7,1.4,1.7,2.6c-1.5,2-4.7,4.7-9.4,7
		c-2.3,1.2-5.1,2.2-8,3.1c-3,0.8-6.3,1.4-9.7,1.6c-3.5,0.2-7,0-10.1-0.4c-1.6-0.2-3.1-0.6-4.5-0.9c-1.4-0.4-2.8-0.7-4-1.2
		c-5-1.8-8.4-4.1-10-5.7C466.1,114.4,466.8,112.6,468.2,112.7z"></path>
	<path class="stblack" d="M470,14.8c-2.3-0.2-5.9-1.1-10.6-1.8c-4.7-0.7-10.3-1-16.4-0.6c-6,0.5-11.4,1.7-15.9,3.1c-1.1,0.3-2.2,0.7-3.2,1
		c-1,0.3-1.9,0.7-2.8,1c-1.7,0.6-3.1,1.2-4.3,1.5c-1.4,0.4-2.7-1.3-1.7-2.6c0.8-1,1.9-2.2,3.5-3.4c0.4-0.3,0.8-0.6,1.2-1
		c0.4-0.3,0.9-0.6,1.4-0.9c1-0.6,2-1.3,3.2-1.9c4.7-2.5,10.9-4.4,17.8-5c7.2-0.5,13.8,0.6,18.8,2.3c2.5,0.9,4.6,1.9,6.3,2.9
		c1.7,1,2.9,2,3.8,2.8C472.1,13.1,471.3,14.9,470,14.8z"></path>
	<path class="stblack" d="M413.9,104.5c2.6,1,6.7,3.2,12.1,5.1c1.4,0.5,2.8,0.9,4.3,1.4c1.5,0.5,3.1,0.8,4.8,1.2c3.3,0.7,6.9,1.1,10.7,1.2
		c7.4,0.3,14.2-0.9,19.6-2.5c5.5-1.6,9.6-3.6,12.2-4.6c1.6-0.6,3,1,1.8,2.6c-1.8,2.4-5.8,5.8-11.7,8.5c-5.9,2.7-13.7,4.7-22.2,4.3
		c-4.4-0.1-8.6-0.8-12.4-1.9c-1.9-0.6-3.7-1.1-5.4-1.9c-1.7-0.7-3.2-1.4-4.7-2.2c-5.7-3.1-9.3-6.7-11-8.9
		C411.3,105.6,412.4,103.9,413.9,104.5z"></path>
	<path class="stblack" d="M421.8,24.3c-1.3-0.5-2.7-1.5-4.7-2.4c-1-0.5-2-1.1-3.2-1.5c-0.6-0.3-1.2-0.5-1.8-0.8c-0.3-0.1-0.6-0.3-0.9-0.4
		c-0.3-0.1-0.7-0.2-1-0.4c-5.2-2-11.9-3.8-19.2-4.3c-7.2-0.4-14,0.3-19.4,1.6c-0.3,0.1-0.7,0.1-1,0.2c-0.3,0.1-0.7,0.2-1,0.3
		c-0.6,0.2-1.3,0.3-1.9,0.5c-1.2,0.3-2.3,0.7-3.4,1c-2.1,0.6-3.8,1.2-5.1,1.6c-1.7,0.4-2.9-1.4-1.5-2.7c0.5-0.5,1.2-1.1,1.9-1.7
		c0.2-0.2,0.4-0.3,0.6-0.5c0.2-0.1,0.4-0.3,0.7-0.4c0.5-0.3,0.9-0.6,1.4-0.9c0.5-0.3,1-0.7,1.6-1c0.6-0.4,1.2-0.6,1.8-0.9
		c1.3-0.6,2.6-1.3,4.1-1.8c5.9-2.3,13.6-3.8,21.9-3.3c8.6,0.6,16.3,3.2,21.8,6.5c0.3,0.2,0.7,0.4,1,0.6c0.3,0.2,0.6,0.4,0.9,0.7
		c0.6,0.4,1.2,0.9,1.8,1.3c1.2,0.8,2.1,1.7,3,2.5c1.8,1.6,2.9,3.2,3.6,4.3C424.5,23.4,423.3,24.9,421.8,24.3z"></path>
	<path class="stblack" d="M366.4,113.9c2.2,0.2,5.8,0.9,10.3,1.4c4.5,0.5,10,0.7,15.9,0.1c5.8-0.7,11-2,15.3-3.4c1.1-0.3,2.1-0.8,3-1.1
		c1-0.3,1.8-0.7,2.7-1c1.7-0.6,3-1.2,4.1-1.5c1.4-0.4,2.7,1.3,1.8,2.6c-0.7,1-1.8,2.2-3.3,3.4c-0.7,0.6-1.6,1.3-2.5,1.9
		c-0.9,0.6-1.9,1.3-3.1,1.9c-4.5,2.5-10.5,4.6-17.2,5.4c-7,0.7-13.4-0.1-18.4-1.7c-2.5-0.8-4.6-1.7-6.2-2.7
		c-1.7-0.9-2.9-1.9-3.7-2.7C364.3,115.6,365.1,113.8,366.4,113.9z"></path>
	<path class="stblack" d="M364.9,14.5c-1.3-0.1-2.9-0.6-5-0.9c-2-0.4-4.4-0.8-7.1-1.1c-5.3-0.6-11.8-0.6-18.7,0.5c-6.8,1.2-12.8,3.4-17.6,5.6
		c-1.2,0.5-2.3,1.2-3.4,1.7c-0.5,0.3-1.1,0.5-1.5,0.8c-0.5,0.3-0.9,0.5-1.4,0.8c-1.8,1-3.3,1.9-4.5,2.5c-1.5,0.7-3.1-0.8-2.1-2.3
		c0.4-0.6,0.8-1.3,1.4-2c0.5-0.8,1.3-1.5,2.1-2.3c0.4-0.4,0.8-0.8,1.3-1.3c0.5-0.4,1-0.8,1.5-1.2c1-0.8,2.1-1.8,3.4-2.6
		c5-3.4,11.8-6.4,19.5-7.8c8.1-1.3,15.7-0.7,21.6,1c2.9,0.9,5.4,1.9,7.4,3c2,1,3.4,2.2,4.4,3C367.2,12.8,366.4,14.7,364.9,14.5z"></path>
	<path class="stblack" d="M317.1,109.4c2.4,0.3,6.3,1.4,11.3,2.4c5,1,11,1.8,17.5,1.7c6.4-0.1,12.2-1.2,16.8-2.7c1.2-0.3,2.2-0.8,3.3-1.2
		c1-0.3,1.9-0.8,2.8-1.2c1.8-0.7,3.1-1.5,4.3-1.9c1.4-0.6,2.9,1,2,2.4c-0.4,0.5-0.8,1.2-1.4,1.9c-0.1,0.2-0.3,0.3-0.4,0.5
		c-0.2,0.2-0.3,0.3-0.5,0.5c-0.4,0.3-0.7,0.7-1.1,1c-0.4,0.4-0.8,0.7-1.3,1.1c-0.5,0.4-1,0.7-1.5,1.1c-1.1,0.7-2.2,1.5-3.5,2.1
		c-5,2.7-11.9,4.5-19.2,4.7c-7.6,0.1-14.5-1.5-19.7-3.5c-5.2-2.1-8.8-4.5-10.5-6.3C314.9,111,315.7,109.2,317.1,109.4z"></path>
	<path class="stblack" d="M311.5,18.2c-1.9-0.2-5-1-8.9-1.8c-1.9-0.4-4-0.8-6.3-1.2c-2.3-0.3-4.7-0.6-7.2-0.7c-10-0.6-18.6,1-22.5,0.9
		c-1.2,0-2.1-2-1.1-3c1.6-1.4,4.6-3.2,8.8-4.5c4.2-1.3,9.5-2.2,15.3-1.8c3,0.2,5.8,0.6,8.4,1.3c2.6,0.7,4.9,1.5,6.9,2.5
		c4,1.9,6.7,4.1,7.9,5.7C313.5,16.5,312.6,18.3,311.5,18.2z"></path>
	<path class="stblack" d="M252.8,106.7c2.6,1.2,6.9,3.7,12.7,5.6c5.8,2,13.2,3.4,21.2,3.1c7.9-0.2,15.1-1.9,20.8-4c5.7-2.1,10-4.6,12.7-5.9
		c1.7-0.8,3.2,0.7,2,2.4c-1.8,2.6-5.8,6.5-11.9,9.8c-6.1,3.3-14.3,5.8-23.3,6c-9.4,0.3-18-2-24.2-5.2c-6.3-3.2-10.1-7.1-11.8-9.6
		C250,107.5,251.2,105.9,252.8,106.7z"></path>
	<path class="stblack" d="M274.5,21.4c-0.6-0.3-1.3-0.6-2.1-1c-0.4-0.2-0.8-0.4-1.2-0.6c-0.4-0.2-0.9-0.4-1.4-0.6c-1.9-1-4.1-1.9-6.7-2.9
		c-5.1-1.9-11.6-3.4-18.7-3.8c-7-0.3-13.6,0.6-18.9,1.8c-1.4,0.2-2.6,0.6-3.8,0.9c-0.6,0.2-1.2,0.3-1.7,0.4
		c-0.5,0.2-1.1,0.3-1.6,0.5c-2.1,0.5-3.7,1.1-5.1,1.4c-1.7,0.4-2.8-1.5-1.5-2.8c0.5-0.5,1.1-1.1,1.9-1.7c0.7-0.6,1.6-1.2,2.6-1.8
		c0.5-0.3,1-0.6,1.5-1c0.5-0.3,1.1-0.6,1.7-0.9c1.2-0.6,2.5-1.3,4-1.8c5.7-2.2,13.1-3.8,21.2-3.5c8.4,0.4,15.9,2.8,21.4,6
		c2.7,1.6,4.9,3.2,6.6,4.8c0.9,0.8,1.6,1.5,2.2,2.2c0.6,0.7,1.1,1.4,1.4,1.9C277.1,20.4,275.9,22,274.5,21.4z"></path>
	<path class="stblack" d="M213.6,108.5c4.1,0.6,13.3,4,24.2,4.9c10.8,0.9,20-1.3,24.2-1.6c1.3-0.1,2.3,1.9,1.2,2.9c-1.6,1.6-4.9,3.6-9.4,5.1
		c-2.3,0.8-4.9,1.3-7.7,1.7c-2.8,0.3-5.9,0.4-9,0.2c-3.2-0.2-6.3-0.8-9.1-1.6c-1.4-0.4-2.7-0.9-3.9-1.3c-1.2-0.5-2.4-1-3.5-1.5
		c-4.3-2.1-7.2-4.5-8.5-6.1C211.4,110.1,212.4,108.3,213.6,108.5z"></path>
	<path class="stblack" d="M213.7,21.8c-2.2-0.6-5.7-2.1-10.2-3.7c-4.5-1.5-10-3-16.1-3.8c-6-0.7-11.6-0.6-16.2-0.1c-1.2,0.1-2.2,0.3-3.3,0.4
		c-1,0.1-2,0.3-2.9,0.5c-1.8,0.2-3.3,0.6-4.5,0.7C159,16,158,14,159.2,13c0.9-0.8,2.3-1.9,4.1-2.8c0.4-0.2,0.9-0.5,1.4-0.7
		c0.5-0.3,1-0.4,1.6-0.7c1.1-0.4,2.3-0.9,3.5-1.3c5.1-1.5,11.6-2.3,18.5-1.5c7.2,0.9,13.4,3.2,18,5.9c4.6,2.7,7.6,5.5,8.9,7.4
		C216.1,20.4,215,22.1,213.7,21.8z"></path>
	<path class="stblack" d="M152.4,108.8c0.7,0.2,1.4,0.5,2.3,0.8c0.8,0.4,1.8,0.7,2.8,1c2.1,0.8,4.5,1.6,7.3,2.3c5.5,1.5,12.4,2.5,19.9,2.3
		c7.3-0.4,14-1.9,19.3-3.9c0.3-0.1,0.7-0.2,1-0.3c0.3-0.1,0.6-0.3,0.9-0.4c0.6-0.3,1.2-0.5,1.8-0.8c1.2-0.4,2.2-1,3.2-1.5
		c2-0.9,3.6-1.8,4.9-2.3c1.6-0.7,3.1,0.9,1.9,2.5c-0.4,0.6-1,1.3-1.7,2c-0.2,0.2-0.3,0.4-0.5,0.6c-0.2,0.2-0.4,0.4-0.6,0.5
		c-0.4,0.4-0.8,0.8-1.3,1.2c-0.5,0.4-1,0.8-1.5,1.2c-0.5,0.4-1.1,0.8-1.7,1.2c-1.2,0.8-2.4,1.7-3.9,2.4c-5.6,3.1-13.3,5.5-21.7,5.9
		c-8.8,0.3-16.7-1.5-22.6-4.2c-2.9-1.4-5.4-2.8-7.3-4.2c-2-1.3-3.3-2.8-4.2-3.8C149.8,110.1,150.8,108.4,152.4,108.8z"></path>
	<path class="stblack" d="M167.9,19.1c-2.7-0.9-7.2-3-13.2-4.6c-5.9-1.6-13.3-2.7-21.2-2c-7.8,0.6-14.8,2.8-20.3,5.3c-5.6,2.5-9.7,5.2-12.3,6.6
		c-1.6,0.9-3.2-0.6-2.1-2.4c1.7-2.7,5.4-6.7,11.2-10.4c2.9-1.8,6.3-3.5,10.2-4.8c3.9-1.3,8.1-2.3,12.6-2.6c9.4-0.8,18,1.2,24.3,4
		c6.4,2.8,10.5,6.3,12.3,8.5C170.5,17.9,169.5,19.6,167.9,19.1z"></path>
	<path class="stblack" d="M113,110.3c1.9,0.1,4.8,0.7,8.4,1.4c3.6,0.7,8,1.3,12.8,1.5c4.7,0.2,9.1,0,12.7-0.3c3.7-0.3,6.7-0.6,8.6-0.5
		c1.2,0.1,2,2.1,1,3c-1.5,1.3-4.3,3-8.3,4.2c-3.9,1.3-9,2.1-14.4,1.8c-5.6-0.3-10.7-1.6-14.5-3.4c-3.8-1.7-6.4-3.7-7.6-5.2
		C111.1,112.1,111.9,110.2,113,110.3z"></path>
	<path class="stblack" d="M104.2,18c-4.1-1.7-9.9-3.8-17.3-4.6c-7.4-0.8-16.3-0.3-25.4,3.2C52.4,20,43.4,26.6,37,36.2c-3.2,4.7-5.7,10.2-7.2,16
		c-0.8,2.9-1.2,6-1.4,9c-0.2,3.1-0.2,6.2,0.2,9.4c0.4,3.1,1,6.1,1.8,9c0.9,2.9,2,5.7,3.3,8.4c1.3,2.7,2.9,5.1,4.6,7.4
		c1.7,2.3,3.6,4.5,5.7,6.4c8.2,7.8,18.3,12.3,27.7,13.9c4.7,0.8,9.3,0.8,13.6,0.4c4.3-0.4,8.2-1.4,11.8-2.5
		c7.1-2.3,12.4-5.6,16.1-8.3c1.2-0.8,2.1-1.4,2.8-1.7c0.7-0.3,1.2-0.3,1.4,0c0.2,0.3,0.1,0.8-0.2,1.5c-0.4,0.8-1.1,1.7-2.2,2.8
		c-1.7,1.7-4,3.6-6.7,5.5c-2.7,1.9-6,3.7-9.8,5.2c-3.8,1.5-8.1,2.8-12.8,3.6c-4.7,0.7-9.9,0.9-15.3,0.2c-10.8-1.4-22.4-6.2-31.9-15
		c-4.8-4.4-8.9-9.7-12.1-15.9c-1.5-3.1-2.9-6.3-3.9-9.6c-1-3.4-1.7-6.8-2.1-10.4c-0.4-3.7-0.5-7.4-0.2-11c0.3-3.6,0.8-7.2,1.8-10.6
		c1.9-6.9,4.9-13.2,8.8-18.5C38.4,20.5,49,13.4,59.5,10c5.2-1.7,10.3-2.5,15.1-2.7c4.8-0.2,9.2,0.2,13.1,1
		c7.9,1.6,13.7,4.5,17.5,6.9c2.1,1.4,3,2.7,2.8,3.3C107.8,19.1,106.5,19,104.2,18z"></path>
</g>
</svg>
