<!--?xml version="1.0" encoding="utf-8"?-->
<!-- Generator: Adobe Illustrator 25.2.3, SVG Export Plug-In . SVG Version: 6.00 Build 0)  -->
<svg version="1.1" id="_x34_" xmlns="http://www.w3.org/2000/svg" xmlns:xlink="http://www.w3.org/1999/xlink" x="0px" y="0px" viewBox="0 0 800 183.1" style="width: 491px;" xml:space="preserve">
<style type="text/css">
	.stblack{fill:#000000;}
	.st0{fill:#FFFFFF;}
</style>
<g>
	<path class="st0" d="M528.3,172.8c17.6-13.5,45.6-2.2,51.6,0.5c0.7,0.3,1.6,0.3,2.3-0.1c19.5-11.6,38.2-7.1,46.7-0.6
		c0.9,0.7,2.2,0.6,3-0.1c13.1-11.1,36.5-3.3,45.8,0.8c0.8,0.4,1.8,0.2,2.5-0.3c16.4-13.7,40.2-4.2,48.1-0.4c1.3,0.6,2.9,0,3.3-1.3
		c4.4-13.2,30.6-30.4,39.6-33c1.8-0.5,2.3-2.7,0.9-3.9c-14.3-12.3-2.1-38.5,4.7-46.2c1.2-1.3,0.7-2.9-0.9-3.5
		c-11.6-4.3-18.4-32.3-14.3-40.3c0.8-1.5-0.3-3.2-2-3.3c-11.6-0.5-18.6-1.7-21.2-12.7c-0.4-1.7-3.6,0.6-5.3,1.2
		c-13,4.8-12.6,13.8-20.1,6.8c-0.7-0.7-1.8-0.8-2.7-0.4c-5.3,2.5-23.7,9.9-35.2-2.7c-0.8-0.8-2.1-1-3.1-0.4
		c-7.5,4.6-31.5,15.9-53.4-0.2c-0.8-0.6-1.9-0.6-2.7-0.1c-7.9,4.8-28.9,13.2-51.1,0c-0.8-0.5-1.9-0.4-2.7,0.1
		c-15.9,11.8-34.8,16.9-58.6,0.2H365.8c-0.9-0.6-2.2-0.6-3,0.2c-10.1,9-28,17.2-53.6,0c-1-0.7-2.3-0.5-3.1,0.3
		c-8.3,9.3-34,11.3-59.2-1.1c-0.7-0.4-1.6-0.3-2.3,0.1c-10,5.6-37,19.3-56.2,4.2c-0.7-0.6-1.8-0.7-2.6-0.3
		c-24.6,12.5-44.8,0.6-50.4-3.4c-0.9-0.6-2.1-0.6-3,0.1c-5,4.2-22.6,16.4-47.8,3.3c-1.5-0.8-3.3,0.1-3.5,1.7
		C79.2,49,66,59.1,49.6,56.6c-1.6-0.2-3,1.1-2.7,2.7c1.2,6.4,8.2,17.4-8.1,22c-1.8,0.5-3,3.8-1.5,5c14.5,11.6,5.1,13.9-0.6,21.2
		c-1,1.3-0.3,3.2,1.3,3.6c22.1,5,14.6,35.4,12.1,45.6c-0.4,1.8,1.4,3.3,3.2,2.7c26.9-10.2,47,8.2,55.2,13.6c0.8,0.5,1.9,0.5,2.7,0
		c22-14.2,43.4-3.5,49.1-0.1c0.9,0.5,2,0.4,2.8-0.2c16.6-13.6,40.4-8,50.7,0.1c0.8,0.6,1.8,0.7,2.7,0.2c21.7-12.9,47.3-2.5,53.2,0.3
		c0.8,0.4,1.7,0.3,2.4-0.2c21-14.6,44.7-1.6,51.4,2.6c1,0.6,2.3,0.5,3.1-0.4c10.9-12,47.8-9.3,61.6-2.2c0.8,0.4,1.9,0.3,2.6-0.2
		c0-4,32.6-13.3,62.6,1.3C462,162.3,514.3,166.6,528.3,172.8z"></path>
	<polygon points="627.3,174.6 627.3,174.6 627.3,174.6 	"></polygon>
	<polygon points="212.1,174.8 212.1,174.8 212.1,174.8 	"></polygon>
	<polygon points="560.5,30.4 560.5,30.4 560.5,30.4 	"></polygon>
	<path class="stblack" d="M779,83.7c-0.6-0.8-1.4-1.3-2.3-1.6c-1.7-0.6-3.5-2.1-5.2-4.2c-2.6-3.2-4.8-8-6.3-12.9c-1.5-4.9-2.3-10-2.3-13.9
		c0-1.3,0.1-2.5,0.3-3.4c0.2-1,0.4-1.7,0.7-2.2l0,0c0.4-0.7,0.5-1.5,0.5-2.2c0-1.3-0.5-2.5-1.3-3.3c-0.8-0.9-2-1.5-3.4-1.5h0
		c-2.9-0.1-5.4-0.3-7.5-0.6c-1.6-0.2-3-0.6-4.2-1c-1.8-0.7-3.1-1.6-4.3-2.9c-1.1-1.4-2.1-3.3-2.8-6.2c-0.1-0.3-0.2-0.7-0.5-1.1
		c-0.3-0.5-0.9-1-1.4-1.2c-0.5-0.2-1-0.3-1.5-0.3c-0.8,0-1.3,0.2-1.9,0.4c-0.8,0.3-1.5,0.6-2.1,0.9c-0.6,0.3-1.2,0.6-1.4,0.7l0,0
		c-5.1,1.9-8.4,4.5-10.7,6.5c-1.1,1-2,1.8-2.7,2.2c-0.3,0.2-0.6,0.4-0.7,0.4c-0.2,0.1-0.3,0.1-0.3,0.1c-0.1,0-0.3,0-0.8-0.3
		c-0.5-0.3-1.2-0.8-2.1-1.6c-1-0.9-2.2-1.3-3.4-1.3c-0.7,0-1.5,0.2-2.2,0.5l0,0c-1.4,0.7-3.9,1.7-6.9,2.6c-3,0.9-6.5,1.6-10.1,1.6
		c-2.7,0-5.4-0.4-8-1.4c-2.6-1-5-2.5-7.2-5c-1-1.1-2.3-1.6-3.7-1.6c-0.9,0-1.8,0.2-2.7,0.8l0,0c-2.1,1.3-5.8,3.3-10.5,4.9
		c-4.7,1.6-10.3,2.9-16.3,2.9c-7.6,0-15.8-2-23.8-7.8l0,0c-0.9-0.6-1.9-1-3-1c-0.9,0-1.8,0.2-2.6,0.7l0,0c-2.2,1.3-5.6,3-9.8,4.4
		c-4.2,1.3-9.2,2.3-14.7,2.3c-7.3,0-15.4-1.7-23.8-6.8c-0.8-0.5-1.7-0.7-2.6-0.7c-1.1,0-2.1,0.3-3,1c-4.2,3.1-8.6,5.7-13.1,7.5
		c-4.6,1.8-9.3,2.8-14.3,2.8c-8.4,0-17.6-2.9-28.2-10.3c-0.4-0.3-1-0.5-1.5-0.5h-137c-0.7-0.3-1.3-0.4-2-0.4c-1.2,0-2.4,0.4-3.4,1.3
		l0,0c-2.7,2.4-6.1,4.8-9.9,6.5c-3.9,1.7-8.3,2.9-13.4,2.9c-7.5,0-16.6-2.5-27.2-9.7c-0.9-0.6-1.8-0.8-2.8-0.8
		c-1.3,0-2.7,0.5-3.7,1.6l0,0c-1.7,1.9-4.5,3.6-8.3,4.8c-3.8,1.2-8.5,1.9-13.7,1.9c-10,0-22.1-2.5-34.2-8.4
		c-0.7-0.3-1.5-0.5-2.2-0.5c-0.9,0-1.7,0.2-2.5,0.7l0,0c-3.3,1.8-8.3,4.5-14.3,6.8c-6,2.2-12.9,4-19.6,4c-3.4,0-6.8-0.4-10-1.4
		c-3.3-1-6.4-2.6-9.3-4.9c-0.9-0.7-2-1.1-3.1-1.1c-0.8,0-1.5,0.2-2.3,0.5l0,0c-7.7,3.9-14.8,5.3-21.2,5.3c-6.5,0-12.3-1.5-16.8-3.3
		c-4.6-1.8-7.9-3.9-9.7-5.2c-0.9-0.6-1.9-0.9-2.9-0.9c-1.1,0-2.3,0.4-3.2,1.2l0,0c-1.5,1.3-4.4,3.5-8.5,5.3c-4,1.8-9.2,3.3-15.4,3.3
		c-6.1,0-13.1-1.4-21.1-5.6c-0.7-0.4-1.6-0.6-2.3-0.6c-1.1,0-2.2,0.4-3.1,1.1c-0.9,0.7-1.6,1.8-1.8,3l0,0c-0.7,4.3-3.4,8.6-7.6,11.8
		c-4.2,3.2-9.9,5.3-16.4,5.3c-1.5,0-3.1-0.1-4.6-0.4l0,0c-0.3,0-0.5-0.1-0.8-0.1c-1.3,0-2.6,0.5-3.5,1.4c-0.9,0.9-1.5,2.1-1.5,3.5
		c0,0.3,0,0.6,0.1,0.9h0c0,0,0,0,0,0c0,0,0,0,0,0h0c0.4,1.8,1,3.7,1.5,5.5c0.5,1.8,0.9,3.7,0.9,5.3c0,0.8-0.1,1.6-0.3,2.3
		c-0.4,1.1-1,2-2.2,3c-1.3,1-3.2,2-6.2,2.8c-0.7,0.2-1.4,0.6-1.9,1c-0.7,0.6-1.3,1.4-1.6,2.2c-0.4,0.8-0.6,1.7-0.6,2.6
		c0,0.6,0.1,1.2,0.3,1.9c0.3,0.6,0.7,1.3,1.3,1.8l0,0c2.7,2.2,4.5,4,5.5,5.3c0.5,0.7,0.8,1.3,1,1.7c0.2,0.5,0.2,0.8,0.2,1.1
		c0,0.5-0.1,0.9-0.5,1.5c-0.5,0.9-1.6,2-2.9,3.3c-1.3,1.3-2.9,2.8-4.4,4.6l0,0c-0.7,0.9-1.1,2-1,3c0,1.1,0.4,2.1,1,3
		c0.7,0.9,1.7,1.5,2.8,1.8h0c2.7,0.6,4.8,1.6,6.5,2.9c2.5,1.9,4.2,4.5,5.3,7.7c1.1,3.1,1.5,6.8,1.5,10.6c0,4.1-0.5,8.3-1.2,12
		c-0.7,3.7-1.4,7-2,9.3v0c-0.1,0.4-0.1,0.7-0.1,1.1c0,1.4,0.6,2.6,1.5,3.5c0.9,0.9,2.1,1.4,3.5,1.4c0.6,0,1.2-0.1,1.8-0.3l0,0
		c5.4-2,10.4-2.9,15.1-2.9c8.8,0,16.6,2.9,22.9,6.4c3.2,1.7,6,3.6,8.5,5.4c2.5,1.7,4.5,3.3,6.3,4.4c0.8,0.6,1.8,0.8,2.8,0.8
		c0.9,0,1.9-0.3,2.7-0.8l0,0c7.8-5.1,15.5-6.8,22.3-6.8c5.7,0,10.9,1.2,15.1,2.6c4.2,1.4,7.3,3.1,9,4.1c0.8,0.5,1.7,0.7,2.6,0.7
		c1.1,0,2.3-0.4,3.2-1.1l0,0c3.4-2.8,7.1-4.7,10.9-5.9c3.8-1.2,7.8-1.8,11.7-1.8c5,0,9.9,0.9,14.3,2.3c4.3,1.4,8,3.4,10.6,5.4
		c0.9,0.7,2,1.1,3.1,1c0.9,0,1.8-0.2,2.5-0.7l0,0c7.4-4.4,15.4-5.9,22.8-5.9c13,0,24.4,4.7,28,6.3l0,0c0.7,0.3,1.4,0.5,2.1,0.5
		c1,0,2-0.3,2.9-0.9l0,0c6.7-4.7,13.6-6.3,20.2-6.3c6.3,0,12.4,1.6,17.3,3.5c5,1.9,8.9,4.2,11,5.5c0.8,0.5,1.8,0.8,2.7,0.8
		c1.3,0,2.7-0.5,3.7-1.6l0,0c1.1-1.2,2.6-2.3,4.4-3.2c2.7-1.4,6.3-2.5,10.2-3.2c3.9-0.7,8.3-1,12.7-1c6.1,0,12.3,0.6,17.8,1.6
		c5.5,1,10.3,2.5,13.4,4.1c0.7,0.4,1.5,0.6,2.3,0.6c1.1,0,2.2-0.3,3-1c0.4-0.3,0.7-0.8,0.9-1.3c0.1-0.1,0.3-0.2,0.5-0.3
		c0.7-0.4,1.8-1,3.3-1.5c2.2-0.8,5.2-1.5,8.8-2.1c3.6-0.6,7.7-0.9,12.1-0.9c10.4,0,22.6,1.9,34.4,7.6c1.1,0.5,2.5,0.2,3.2-0.8
		c0.6-0.9,1.8-1.8,3.6-2.6c2.6-1.3,6.5-2.2,10.9-2.8c4.5-0.6,9.6-0.9,14.9-0.9c8.4,0,17.2,0.7,24.9,1.8c3.8,0.6,7.4,1.2,10.4,1.9
		c3,0.7,5.5,1.5,7.2,2.2c0.9,0.4,1.9,0.3,2.6-0.3c2.9-2.2,6.1-3.7,9.4-4.6c3.4-0.9,6.9-1.3,10.5-1.3c6.3,0,12.7,1.3,17.9,2.7
		c5.2,1.5,9.3,3.2,11.1,4c0.7,0.3,1.4,0.4,2,0.4c0.9,0,1.8-0.2,2.6-0.7l0,0c8.3-5,16.4-6.8,23.6-6.8c4.4,0,8.4,0.7,11.8,1.8
		c3.4,1.1,6.3,2.6,8.4,4.2c0.9,0.7,2,1,3,1c1.2,0,2.3-0.4,3.2-1.2l0,0c2.2-1.9,4.7-3.1,7.5-3.9c2.8-0.8,5.8-1.2,8.9-1.2
		c5.1,0,10.4,0.9,15.1,2.2c4.7,1.3,8.8,2.8,11.6,4.1c0.7,0.3,1.3,0.4,2,0.4c1.1,0,2.3-0.4,3.2-1.1l0,0c2.9-2.4,6.1-4.1,9.4-5.1
		c3.3-1,6.7-1.5,10.1-1.5c5.4,0,10.7,1.1,15.2,2.4c4.5,1.4,8.3,3,10.6,4.1l0,0c0.7,0.3,1.5,0.5,2.2,0.5c1,0,2-0.3,2.8-0.9
		c0.8-0.6,1.5-1.4,1.9-2.5l0,0c0.9-2.7,3.1-6.1,6.2-9.4c4.6-5,11-10.1,17-14.1c3-2,5.9-3.7,8.5-5.1c2.5-1.3,4.7-2.3,6.1-2.7
		c1.1-0.3,2-1,2.6-1.8c0.6-0.8,0.9-1.8,0.9-2.9c0-1.3-0.6-2.7-1.7-3.6c-2.1-1.8-3.5-3.9-4.4-6.2c-0.9-2.4-1.3-5-1.3-7.8
		c0-5.5,1.6-11.5,3.8-16.7c1.1-2.6,2.3-5,3.5-7c1.2-2,2.4-3.7,3.4-4.8l0,0c0.8-0.9,1.3-2,1.3-3.3C780,85.5,779.6,84.5,779,83.7z
		 M759.2,43.1C759.2,43.1,759.2,43.1,759.2,43.1L759.2,43.1L759.2,43.1z M617,34.5L617,34.5L617,34.5C617,34.5,617,34.5,617,34.5z
		 M38.5,108.6L38.5,108.6C38.5,108.6,38.5,108.6,38.5,108.6L38.5,108.6z M52.4,156.9L52.4,156.9C52.4,156.9,52.4,156.9,52.4,156.9
		L52.4,156.9z M109.7,170.8C109.7,170.8,109.7,170.8,109.7,170.8L109.7,170.8L109.7,170.8z M161.4,170.7
		C161.4,170.7,161.4,170.7,161.4,170.7L161.4,170.7L161.4,170.7z M270.6,170.9C270.6,170.9,270.6,170.9,270.6,170.9L270.6,170.9
		L270.6,170.9z M270.8,170.9L270.8,170.9L270.8,170.9C270.8,170.9,270.8,170.9,270.8,170.9z M324.6,173.5
		C324.6,173.5,324.6,173.5,324.6,173.5L324.6,173.5L324.6,173.5z M678.5,170.8C678.5,170.8,678.5,170.8,678.5,170.8L678.5,170.8
		L678.5,170.8z M729.4,170.1L729.4,170.1L729.4,170.1C729.4,170.1,729.4,170.1,729.4,170.1z M770.9,91.9c-2,3.4-4,7.5-5.5,12.1
		c-1.5,4.5-2.5,9.4-2.5,14.3c0,3.3,0.5,6.6,1.7,9.7c1.1,2.9,2.9,5.6,5.4,7.9c-1.2,0.4-2.5,0.9-4,1.6c-5.8,2.7-13.8,7.8-21,13.7
		c-3.6,2.9-7,6.1-9.7,9.3c-2.7,3.2-4.8,6.4-6,9.6c-2.5-1.2-6.4-2.9-11.2-4.3c-4.9-1.5-10.6-2.6-16.7-2.6c-3.8,0-7.8,0.5-11.7,1.7
		c-3.8,1.2-7.6,3.1-11,6c-3-1.3-7.3-2.9-12.2-4.3c-5-1.3-10.7-2.4-16.4-2.4c-3.5,0-7,0.4-10.4,1.4c-3.3,1-6.5,2.5-9.3,4.9
		c-2.6-2-5.9-3.7-9.8-4.9c-4-1.3-8.5-2.1-13.4-2.1c-8,0-17,2.1-26.1,7.5c-2-0.9-6.3-2.7-11.7-4.2c-5.5-1.6-12.3-2.9-19.3-2.9
		c-3.9,0-8,0.4-11.9,1.5c-3.5,1-6.9,2.5-10,4.6c-1.9-0.7-4.1-1.4-6.6-2c-9.6-2.3-23.4-3.8-36.4-3.8c-7.3,0-14.4,0.5-20.2,1.7
		c-2.9,0.6-5.6,1.4-7.8,2.5c-1.5,0.7-2.9,1.6-4.1,2.6c-12.1-5.5-24.4-7.3-34.9-7.3c-8,0-15,1.1-20.1,2.5c-2.6,0.7-4.6,1.5-6.2,2.4
		c-0.8,0.4-1.5,0.9-2.1,1.5c-0.2,0.2-0.3,0.4-0.5,0.6c-3.8-1.9-8.8-3.4-14.5-4.5c-5.8-1.1-12.3-1.7-18.7-1.7c-6.2,0-12.4,0.6-17.8,2
		c-2.7,0.7-5.2,1.6-7.5,2.8c-2.2,1.1-4.1,2.5-5.7,4.2c-2.3-1.5-6.4-3.9-11.8-5.9c-5.4-2.1-12-3.8-19.2-3.8c-7.4,0-15.5,1.9-23.1,7.2
		c-4-1.8-16-6.8-30.1-6.8c-8.1,0-17,1.7-25.4,6.6c-3.2-2.5-7.3-4.6-12.1-6.2c-4.8-1.6-10.3-2.6-15.9-2.6c-4.4,0-8.9,0.6-13.3,2
		c-4.4,1.4-8.6,3.6-12.5,6.7c-1.9-1.1-5.3-3-9.9-4.5c-4.6-1.6-10.3-2.9-16.7-2.9c-7.7,0-16.4,1.9-25.1,7.5c-1.5-1-3.6-2.5-6.1-4.3
		c-3.8-2.7-8.7-5.8-14.5-8.4c-5.8-2.5-12.5-4.4-20-4.4c-5.2,0-10.8,0.9-16.6,3.1c0.5-2.3,1.3-5.5,1.9-9.1c0.7-3.9,1.2-8.4,1.2-12.9
		c0-5.5-0.8-11.2-3.4-16c-1.3-2.4-3.1-4.6-5.4-6.4c-2.2-1.7-4.9-3-8.1-3.7c1.5-1.8,3.3-3.4,5-5.1c0.9-0.9,1.7-1.9,2.4-3
		c0.7-1.1,1.2-2.5,1.2-4.1c0-1-0.2-2-0.6-3c-0.6-1.5-1.5-2.9-2.8-4.4c-1.3-1.4-2.9-2.9-5-4.6c0-0.2,0.1-0.4,0.2-0.6
		c0.1-0.1,0.1-0.2,0.2-0.2c2.2-0.6,4.1-1.4,5.7-2.3c2.4-1.3,4.2-3,5.3-5c1.1-1.9,1.5-4,1.5-5.9c0-2.4-0.6-4.7-1.1-6.7
		c-0.5-1.8-1.1-3.5-1.3-4.7c1.7,0.2,3.4,0.4,5.1,0.4c7.6,0,14.4-2.5,19.5-6.4c5-3.8,8.5-9.1,9.5-14.8c8.6,4.4,16.5,6.1,23.3,6.1
		c7,0,12.9-1.7,17.5-3.8c4.5-2,7.7-4.4,9.6-6c2,1.4,5.7,3.7,10.7,5.7c5,2,11.4,3.6,18.7,3.6c7.1,0,15.1-1.6,23.4-5.8
		c3.4,2.7,7.2,4.6,10.9,5.7c3.8,1.2,7.7,1.7,11.6,1.7c7.6,0,15.1-1.9,21.4-4.3c6.3-2.4,11.6-5.2,15-7.1c12.7,6.2,25.5,8.9,36.4,8.9
		c5.7,0,10.9-0.7,15.3-2.1c4.3-1.4,7.9-3.4,10.5-6.2c11.2,7.5,21.3,10.4,29.9,10.4c5.8,0,11-1.3,15.5-3.3c4.4-2,8.2-4.6,11.2-7.3
		c0.4,0.3,0.9,0.4,1.4,0.4h136.8c10.9,7.5,21.1,10.7,30.5,10.7c5.7,0,11.2-1.2,16.2-3.2c5-2,9.8-4.8,14.2-8.1
		c9.2,5.5,18.3,7.4,26.4,7.4c6.1,0,11.7-1.1,16.3-2.6c4.6-1.5,8.3-3.3,10.8-4.8c8.9,6.5,18.3,8.8,26.8,8.8c6.7,0,12.9-1.4,18-3.2
		c5-1.7,9-3.8,11.4-5.3c2.7,3,5.9,5,9.1,6.2c3.3,1.2,6.6,1.7,9.8,1.7c4.2,0,8.2-0.8,11.6-1.8c3.3-1,5.9-2.1,7.5-2.9
		c1.1,1,2,1.7,3,2.3c1,0.6,2.2,0.9,3.3,0.9c0.8,0,1.6-0.2,2.2-0.4c1.2-0.5,2.1-1.2,3-1.9c1.3-1.1,2.6-2.3,4.4-3.6
		c1.7-1.3,3.8-2.5,6.7-3.6l0,0c0.5-0.2,0.9-0.4,1.3-0.6c0.4-0.2,0.7-0.4,1.1-0.5c0.7,2.2,1.6,4,2.7,5.6c1.1,1.5,2.4,2.7,3.9,3.7
		c2.2,1.4,4.7,2.2,7.5,2.7c2.6,0.5,5.5,0.7,8.6,0.8c-0.4,1-0.7,2.1-0.9,3.2c-0.2,1.3-0.3,2.8-0.3,4.3c0,3.1,0.4,6.5,1.2,10.1
		c1.1,5.3,3.1,10.9,5.7,15.6c1.3,2.3,2.8,4.5,4.5,6.2c1.6,1.6,3.4,3,5.4,3.8C773.3,88.1,772.1,89.8,770.9,91.9z"></path>
	<path class="stblack" d="M188.4,36.3c-0.7-0.6-1.8-0.7-2.6-0.3c0,0-0.1,0-0.1,0l101.7,130.7c1.7-0.3,3.4-0.4,5.1-0.5L194.1,39.9
		C192.1,38.9,190.2,37.7,188.4,36.3z M227,40l103,132.3c1.2-0.7,2.5-1.4,3.9-2L231.3,38.5C229.9,39,228.5,39.6,227,40z M210.3,43.2
		l97.5,125.2c2.8,0.9,5.5,1.9,7.7,2.9L215.5,42.8C213.8,43,212.1,43.1,210.3,43.2z M170.4,41l102.4,131.5c1.2-0.8,2.5-1.6,3.7-2.2
		L175.1,40C173.5,40.5,172,40.8,170.4,41z M150.3,39.7l99.3,127.6c2.3,0.3,4.4,0.8,6.4,1.2L156.8,41.1
		C154.5,40.7,152.3,40.3,150.3,39.7z M244.6,32.1c-0.9,0.5-2,1.1-3.2,1.8l104.1,133.7c1.7-0.2,3.4-0.4,5.1-0.5L245.2,31.8
		C245,31.9,244.8,32,244.6,32.1z M284.8,40.6l102.9,132.2c0.1,0.1,0.2,0.1,0.3,0.2c0.8,0.4,1.9,0.3,2.6-0.2c0-0.5,0.4-1,1.3-1.6
		l-102-131.1C288.3,40.4,286.6,40.6,284.8,40.6z M263.9,38.3l100.4,129c2,0.2,4.1,0.4,6,0.7L270.5,39.7
		C268.3,39.3,266.1,38.9,263.9,38.3z M301,36.9l101.7,130.7c1.5-0.3,3.1-0.6,4.9-0.8l-103-132.3C303.6,35.4,302.4,36.2,301,36.9z
		 M128.2,35.8l102.5,131.7c1.6-0.3,3.3-0.5,4.9-0.7L131.7,33.4C130.8,34.1,129.6,34.9,128.2,35.8z M37.2,86.3
		c8.2,6.5,8.8,10.1,6.7,13.3l49.2,63.3c4.3,2.3,8,4.9,10.9,7L36.8,83.4C36.4,84.5,36.5,85.7,37.2,86.3z M53.3,136.2l15.6,20.1
		c2,0,3.9,0.1,5.7,0.3l-21.8-28C53.3,131.1,53.4,133.7,53.3,136.2z M113.4,41.4l102.5,131.7c0.2-0.1,0.4-0.1,0.5-0.2
		c1.1-0.7,2.2-1.3,3.4-1.8L118,40.4C116.6,40.8,115,41.2,113.4,41.4z M50.1,156.7l2.2,2.8c0.3,0,0.7,0,1-0.2
		c1.2-0.4,2.3-0.8,3.4-1.2l-5.4-6.9C50.9,153.4,50.4,155.2,50.1,156.7z M46.1,77.8l71.4,91.7c1.4-0.6,2.8-1.2,4.2-1.6L48.7,74.2
		C48.2,75.5,47.4,76.7,46.1,77.8z M38,111.1c0.5,0.1,1.1,0.3,1.6,0.4l-3-3.9C35.6,108.9,36.3,110.7,38,111.1z M322.4,39.8
		l98.4,126.5c1.9,0.1,3.8,0.2,5.8,0.4l-97-124.7C327.3,41.4,324.9,40.7,322.4,39.8z M78.1,45.2L172.9,167c1.4-0.6,2.9-1,4.4-1.4
		L80.3,41C79.7,42.4,79,43.9,78.1,45.2z M92.8,39.6l97.3,125c2.1,0.1,4.1,0.4,6.1,0.8l-96.5-124C97.4,40.9,95.2,40.4,92.8,39.6z
		 M66.3,54.7L157,171.1c1.4,0.7,2.5,1.3,3.3,1.8c0.9,0.5,2,0.4,2.8-0.2c0.1-0.1,0.3-0.2,0.4-0.3L70.2,52.7
		C69,53.4,67.7,54.1,66.3,54.7z M49.5,56.6c-0.3,0-0.6,0-0.8,0l85,109.2c1.9-0.1,3.8,0,5.6,0.2L54.5,57C52.9,57,51.2,56.9,49.5,56.6
		z M393.3,32.6l104.7,134.6c2,0.1,4,0.3,5.9,0.5L398.8,32.6H393.3z M648.1,40.6l92,118.3c1-1,2.1-2,3.1-3L653,39.9
		C651.5,40.2,649.8,40.4,648.1,40.6z M626.2,37l105,134.9c0.2-0.2,0.3-0.5,0.4-0.7c0.4-1.2,1-2.4,1.7-3.6L633.7,39.6
		C631.2,39,628.7,38.1,626.2,37z M589.9,39.4l99.7,128.1c1.5-0.5,3-0.9,4.5-1.2l-99-127.2C593.4,39.3,591.7,39.4,589.9,39.4z
		 M664.1,36.6l87.6,112.5c1.2-0.9,2.4-1.7,3.5-2.5L668.1,34.7C666.9,35.3,665.6,36,664.1,36.6z M606.7,36.6l100.8,129.6
		c2.2,0.3,4.4,0.7,6.4,1.2L610.9,34.9C609.6,35.5,608.2,36,606.7,36.6z M685.4,39.4L764.5,141c1.4-0.8,2.8-1.4,4-1.9l-77-98.9
		C689.5,40.2,687.4,39.9,685.4,39.4z M760.5,55.2l-12.1-15.6c-5.1-1.4-8.5-4.5-10.2-11.4c-0.3-1.2-2.2-0.3-3.8,0.5l27.9,35.9
		C761.5,61.4,760.9,58.2,760.5,55.2z M724.9,33.9c-1.3,1-2.4,2-3.3,2.8L770.1,99c0.7-1.5,1.4-2.9,2.1-4.3L724.9,33.9z M766.1,111.5
		l-58.1-74.7c-1.2,0.5-2.6,1-4.3,1.5l61.7,79.3C765.5,115.6,765.7,113.5,766.1,111.5z M565.5,32.8l108,138.7
		c1.6,0.6,2.9,1.2,4.1,1.7c0.8,0.4,1.7,0.2,2.4-0.3l-106-136.2C571.3,35.7,568.4,34.4,565.5,32.8z M358.1,36.5l103.4,132.8
		c1.4-0.4,2.9-0.8,4.6-1.1L361.5,33.9C360.5,34.8,359.3,35.6,358.1,36.5z M412.4,32.6l107.1,137.6c2.7,0.6,5,1.2,7,1.9L417.9,32.6
		H412.4z M431.6,32.6l105.5,135.6c1.5-0.5,3-0.9,4.6-1.2L437,32.6H431.6z M551.3,39l99.4,127.7c1.9,0,3.9,0.2,5.8,0.4L555.2,37
		C553.9,37.7,552.6,38.4,551.3,39z M374.2,32.6l104.4,134.2c1.8-0.1,3.5-0.1,5.4-0.1L379.7,32.6H374.2z M343.6,42.4l99.3,127.6
		c2.6,0.8,5.1,1.7,7.7,2.8L348.2,41.3C346.7,41.7,345.2,42.1,343.6,42.4z M450.7,32.6l104.2,134c2.1,0.2,4.2,0.5,6.1,0.9L456.2,32.6
		H450.7z M535.5,43.3l99,127.3c1.3-0.8,2.6-1.4,4-1.9l-98-126C538.8,42.9,537.2,43.2,535.5,43.3z M512.2,37.9l99.9,128.3
		c2.3,0.3,4.5,0.7,6.5,1.3L520.3,41.3C517.6,40.4,514.9,39.3,512.2,37.9z M469.8,32.6L579,172.9c0.4,0.2,0.7,0.3,0.9,0.4
		c0.7,0.3,1.6,0.3,2.3-0.1c0.6-0.3,1.1-0.7,1.7-1L475.3,32.6H469.8z M488.9,32.6l105.2,135.2c1.6-0.5,3.1-0.8,4.6-1.1L494.4,32.6
		H488.9z"></path>
	<path class="st0" d="M520.4,153.5c17.6-14,45.6-2.3,51.6,0.5c0.7,0.3,1.6,0.3,2.3-0.1c19.5-12.1,38.2-7.4,46.7-0.7
		c0.9,0.7,2.2,0.7,3-0.1c13.1-11.6,36.5-3.4,45.8,0.8c0.8,0.4,1.8,0.2,2.5-0.4c16.4-14.2,40.2-4.3,48.1-0.4c1.3,0.6,2.9,0,3.3-1.4
		c4.4-13.7,23.5-20.9,32.5-23.6c1.8-0.5,2.3-2.8,0.9-4c-14.3-12.7-6.3-35.1,0.5-43.1c1.2-1.4,0.7-3-0.9-3.7
		c-11.6-4.4-9.1-20.7-5.1-29.1c0.8-1.5-0.3-3.3-2-3.4c-11.6-0.5-14.8-14.3-13.7-24.5c0.2-1.8-1.6-3.1-3.2-2.4
		c-13,5-20.1,1.1-27.6-6.2c-0.7-0.7-1.8-0.9-2.7-0.4c-5.3,2.6-23.7,10.3-35.2-2.8c-0.8-0.9-2.1-1-3.1-0.4
		c-7.5,4.8-31.5,16.5-53.4-0.2c-0.8-0.6-1.9-0.6-2.7-0.1c-7.9,5-28.9,13.7-51.1,0c-0.8-0.5-1.9-0.5-2.7,0.1
		c-15.9,12.3-34.8,17.5-58.6,0.2c-18.9,9.9-40,12.9-71.2-0.9c-32.1,17.1-66.4,0.9-66.4,0.9c-0.9-0.7-2.2-0.6-3,0.2
		c-10.1,9.4-28,17.8-53.6,0c-1-0.7-2.3-0.5-3.1,0.4c-8.3,9.7-34,11.7-59.2-1.1c-0.7-0.4-1.6-0.3-2.3,0.1c-10,5.8-37,20-56.2,4.3
		c-0.7-0.6-1.8-0.7-2.6-0.3c-24.6,13-44.8,0.6-50.4-3.5c-0.9-0.7-2.1-0.6-3,0.1c-5,4.4-22.6,17-47.8,3.5c-1.5-0.8-3.3,0.1-3.5,1.7
		C71.4,25,58.1,35.6,41.7,33c-1.6-0.3-3,1.2-2.7,2.8c1.2,6.7,1.7,20.9-14.6,25.6c-1.8,0.5-2.3,2.9-0.8,4.1
		c14.5,12,8.4,31.2,2.7,38.7c-1,1.4-0.3,3.4,1.3,3.8c22.1,5.2,24.9,26.4,22.5,37c-0.4,1.9,1.4,3.5,3.2,2.8
		c26.9-10.6,39.2,0.3,47.4,5.9c0.8,0.5,1.9,0.6,2.7,0c22-14.8,43.4-3.6,49.1-0.1c0.9,0.5,2,0.4,2.8-0.2c16.6-14.1,40.4-8.3,50.7,0.1
		c0.8,0.6,1.8,0.7,2.7,0.2c21.7-13.4,47.3-2.5,53.2,0.3c0.8,0.4,1.7,0.3,2.4-0.2c21-15.2,44.7-1.7,51.4,2.7c1,0.6,2.3,0.5,3.1-0.4
		c10.9-12.4,47.8-9.6,61.6-2.3c0.8,0.4,1.9,0.4,2.6-0.2c0,0,32.1-14.3,68.6,0.6C492.2,137.6,520.4,153.5,520.4,153.5z"></path>
	<polygon points="296.2,6.9 296.2,6.9 296.2,6.8 	"></polygon>
	<path class="stblack" d="M758.8,122.2c-2.6-2.3-4.3-4.9-5.5-7.8c-1.1-2.8-1.6-5.9-1.6-9c0-4.5,1-9.1,2.6-13.1c1.5-4,3.5-7.4,5.3-9.4l0,0
		c0.8-0.9,1.3-2.1,1.3-3.3c0-1-0.3-2-0.9-2.8c-0.6-0.8-1.4-1.4-2.3-1.7c-1.3-0.5-2.3-1.1-3.2-1.9c-1.3-1.1-2.1-2.6-2.7-4.3
		c-0.6-1.7-0.9-3.7-0.9-5.8c0-4.7,1.4-10,3.1-13.4l0,0c0.3-0.7,0.5-1.5,0.5-2.2c0-1.3-0.5-2.5-1.3-3.4c-0.8-0.9-2.1-1.5-3.4-1.6
		c-2.1-0.1-3.7-0.7-5.1-1.6c-1-0.7-2-1.7-2.7-2.8c-1.2-1.7-2.1-3.9-2.7-6.3c-0.6-2.4-0.9-5-0.9-7.5c0-1.2,0.1-2.3,0.2-3.4l0,0
		c0-0.2,0-0.3,0-0.5c0-1.4-0.6-2.7-1.5-3.6c-0.9-0.9-2.1-1.4-3.5-1.4c-0.6,0-1.2,0.1-1.8,0.4l0,0c-3.8,1.5-7,2.1-9.6,2.1
		c-3,0-5.4-0.7-7.9-2c-2.4-1.3-4.8-3.2-7.3-5.7c-1-0.9-2.2-1.4-3.5-1.4c-0.7,0-1.5,0.2-2.2,0.5l0,0c-1.4,0.7-3.9,1.8-6.8,2.7
		c-3,0.9-6.5,1.6-10.1,1.6c-2.7,0-5.4-0.4-8-1.4c-2.6-1-5-2.6-7.2-5.1c-1-1.1-2.4-1.7-3.7-1.7c-0.9,0-1.9,0.3-2.7,0.8l0,0
		c-2.1,1.4-5.8,3.4-10.5,5.1c-4.6,1.7-10.2,3-16.2,3c-7.6,0-15.7-2-23.7-8.1l0,0c-0.9-0.7-2-1-3-1c-0.9,0-1.9,0.3-2.7,0.8l0,0
		c-2.2,1.4-5.6,3.1-9.8,4.5c-4.2,1.4-9.2,2.4-14.7,2.4c-7.3,0-15.4-1.8-23.8-7l0,0c-0.8-0.5-1.7-0.7-2.6-0.7c-1.1,0-2.2,0.4-3.1,1
		l0,0c-4.2,3.2-8.6,5.9-13.1,7.8c-4.5,1.9-9.3,2.9-14.3,2.9c-4.2,0-8.6-0.7-13.2-2.4c-4.7-1.7-9.6-4.4-14.9-8.2
		c-0.8-0.6-1.9-0.7-2.8-0.2c-9.6,5-19.6,8.2-31.4,8.2c-10.7,0-22.9-2.6-37.6-9.1c-0.7-0.3-1.6-0.3-2.3,0.1
		c-10.6,5.7-21.5,7.5-31.2,7.5c-9.3,0-17.5-1.7-23.4-3.4c-3-0.8-5.3-1.7-6.9-2.3c-0.8-0.3-1.4-0.6-1.8-0.8c-0.2-0.1-0.4-0.2-0.5-0.2
		l-0.1,0c-0.8-0.5-1.7-0.7-2.6-0.7c-1.2,0-2.5,0.5-3.4,1.3l0,0c-2.7,2.5-6.1,5-9.9,6.8c-3.9,1.8-8.3,3-13.3,3
		c-7.5,0-16.5-2.6-27.1-10c-0.9-0.6-1.9-0.9-2.9-0.9c-1.4,0-2.8,0.6-3.7,1.7c-1.7,2-4.5,3.8-8.3,5c-3.8,1.2-8.4,2-13.6,2
		c-10,0-22.1-2.6-34.1-8.7l0,0c-0.7-0.4-1.5-0.5-2.3-0.5c-0.9,0-1.8,0.2-2.5,0.7l0,0c-3.3,1.9-8.3,4.7-14.3,7
		c-6,2.3-12.8,4.1-19.6,4.1c-3.4,0-6.7-0.4-10-1.5c-3.2-1-6.4-2.7-9.3-5.1c-0.9-0.7-2-1.1-3.2-1.1c-0.8,0-1.6,0.2-2.3,0.6l0,0
		c-7.7,4-14.8,5.5-21.1,5.5c-6.5,0-12.2-1.5-16.8-3.4c-4.5-1.9-7.9-4.1-9.7-5.4c-0.9-0.6-1.9-1-3-1c-1.2,0-2.4,0.4-3.3,1.3l0,0
		c-1.5,1.3-4.4,3.6-8.4,5.5c-4,1.9-9.2,3.4-15.3,3.4c-6,0-13.1-1.5-21-5.8c-0.8-0.4-1.6-0.6-2.4-0.6c-1.2,0-2.3,0.4-3.2,1.1
		c-0.9,0.7-1.6,1.8-1.8,3.1l0,0c-0.7,4.5-3.4,8.9-7.7,12.3c-4.2,3.3-9.9,5.5-16.3,5.5c-1.5,0-3-0.1-4.6-0.4l0,0
		c-0.3,0-0.5-0.1-0.8-0.1c-1.4,0-2.6,0.6-3.5,1.5c-0.9,0.9-1.5,2.2-1.5,3.5c0,0.3,0,0.6,0.1,0.9h0c0.3,1.4,0.5,3.3,0.5,5.3
		c0,3.2-0.6,6.8-2.5,9.9c-0.9,1.5-2.2,3-3.9,4.3c-1.7,1.3-3.9,2.4-6.8,3.2c-1.1,0.3-2.1,1-2.7,1.9c-0.6,0.9-0.9,1.9-0.9,2.9
		c0,0.7,0.1,1.4,0.5,2.1c0.3,0.7,0.8,1.3,1.4,1.8c3,2.5,5,5.3,6.2,8.2c1.2,2.9,1.8,6,1.8,9c0,3.6-0.7,7.2-1.8,10.3
		c-1.1,3.1-2.6,5.8-3.9,7.6l0,0c-0.7,0.9-1,2-1,3c0,1.1,0.4,2.2,1,3c0.7,0.9,1.7,1.6,2.8,1.8h0c4.2,1,7.6,2.6,10.3,4.5
		c4.1,2.9,6.8,6.7,8.5,10.8c1.7,4.1,2.4,8.4,2.4,12.3c0,2.4-0.3,4.5-0.7,6.3l0,0c-0.1,0.4-0.1,0.7-0.1,1.1c0,1.4,0.6,2.7,1.5,3.6
		c0.9,0.9,2.1,1.5,3.5,1.5c0.6,0,1.2-0.1,1.8-0.3l0,0c7.9-3.1,14.4-4.3,19.9-4.3c6.2,0,10.9,1.5,15,3.4c4,2,7.2,4.4,10.2,6.4
		c0.8,0.6,1.8,0.9,2.8,0.9c1,0,1.9-0.3,2.8-0.8l0,0c7.8-5.3,15.4-7,22.3-7c5.7,0,10.8,1.2,15,2.7c4.2,1.5,7.3,3.2,9,4.3l0,0
		c0.8,0.5,1.7,0.7,2.6,0.7c1.2,0,2.3-0.4,3.2-1.2l0,0c3.4-2.9,7-4.8,10.9-6.1c3.8-1.3,7.8-1.8,11.7-1.8c5,0,9.9,0.9,14.2,2.4
		c4.3,1.5,8,3.5,10.6,5.6l0,0c0.9,0.7,2,1.1,3.1,1.1c0.9,0,1.8-0.2,2.6-0.7l0,0c7.4-4.6,15.3-6.1,22.8-6.1c13,0,24.4,4.8,28,6.6
		c0.7,0.3,1.4,0.5,2.1,0.5c1.1,0,2.1-0.3,2.9-0.9l0,0c6.7-4.8,13.6-6.5,20.1-6.5c6.3,0,12.3,1.6,17.3,3.6c5,2,8.9,4.3,10.9,5.7
		c0.8,0.6,1.8,0.8,2.8,0.8c1.4,0,2.7-0.6,3.7-1.7l0,0c1.1-1.2,2.6-2.4,4.4-3.3c2.7-1.5,6.2-2.6,10.2-3.3c3.9-0.7,8.3-1,12.7-1
		c6,0,12.2,0.6,17.7,1.7c5.5,1.1,10.3,2.6,13.4,4.3c0.7,0.4,1.6,0.6,2.4,0.6c1,0,1.9-0.3,2.7-0.8c1.4-0.6,14.5-5.9,32.6-5.9
		c10.1,0,21.7,1.6,33.8,6.6c0.6,0.3,1.3,0.3,2,0c13.6-5.5,25.7-7.3,35.7-7.3c9.7,0,17.5,1.7,22.9,3.3c2.7,0.8,4.7,1.7,6.1,2.3
		c0.7,0.3,1.2,0.6,1.5,0.7c0.2,0.1,0.3,0.1,0.4,0.2l0.1,0l0,0l0,0l0,0l0,0c0.9,0.5,2.1,0.4,2.9-0.2c2.9-2.3,6.1-3.8,9.4-4.8
		c3.4-1,6.9-1.4,10.5-1.4c6.3,0,12.7,1.3,17.9,2.8c5.2,1.5,9.3,3.3,11.1,4.1c0.7,0.3,1.4,0.5,2.1,0.5c0.9,0,1.8-0.3,2.6-0.7l0,0
		c8.3-5.2,16.4-7.1,23.5-7.1c4.4,0,8.4,0.7,11.8,1.9c3.4,1.1,6.3,2.7,8.4,4.4l0,0c0.9,0.7,2,1.1,3.1,1.1c1.2,0,2.4-0.4,3.3-1.2l0,0
		c2.2-1.9,4.7-3.2,7.5-4.1c2.8-0.8,5.8-1.2,8.9-1.2c5.1,0,10.3,1,15,2.3c4.7,1.3,8.8,2.9,11.6,4.2c0.7,0.3,1.4,0.5,2.1,0.5
		c1.2,0,2.3-0.4,3.3-1.2l0,0c2.9-2.5,6.1-4.2,9.3-5.3c3.3-1.1,6.7-1.5,10.1-1.5c5.3,0,10.6,1.1,15.2,2.5c4.5,1.4,8.3,3.1,10.6,4.3
		c0.7,0.4,1.5,0.5,2.2,0.5c1,0,2.1-0.3,2.9-0.9c0.8-0.6,1.5-1.5,1.9-2.5l0,0c0.9-2.9,2.7-5.6,5-8.1c3.5-3.6,8.3-6.6,13-8.9
		c4.7-2.3,9.4-3.9,12.7-4.9c1.1-0.3,2-1,2.7-1.9c0.6-0.9,0.9-1.9,0.9-2.9c0-0.7-0.1-1.3-0.4-2C759.8,123.3,759.3,122.7,758.8,122.2z
		 M609,10L609,10L609,10C609,10,609,10,609,10z M237.8,9.8L237.8,9.8L237.8,9.8C237.8,9.8,237.8,9.8,237.8,9.8z M28.1,105.5
		L28.1,105.5C28.1,105.5,28.1,105.5,28.1,105.5L28.1,105.5z M52.2,145.3C52.2,145.3,52.2,145.3,52.2,145.3L52.2,145.3L52.2,145.3z
		 M101.8,151.5C101.8,151.5,101.7,151.5,101.8,151.5L101.8,151.5L101.8,151.5z M153.4,151.4C153.4,151.4,153.4,151.4,153.4,151.4
		L153.4,151.4L153.4,151.4z M207.2,151.4C207.2,151.4,207.2,151.4,207.2,151.4L207.2,151.4L207.2,151.4z M262.7,151.5
		C262.7,151.6,262.7,151.6,262.7,151.5L262.7,151.5L262.7,151.5z M316.7,154.3C316.7,154.3,316.7,154.3,316.7,154.3L316.7,154.3
		L316.7,154.3z M572.9,151.6C572.9,151.6,572.9,151.6,572.9,151.6L572.9,151.6L572.9,151.6z M622.2,151.1
		C622.2,151.1,622.2,151.1,622.2,151.1L622.2,151.1L622.2,151.1z M670.6,151.5C670.6,151.5,670.6,151.5,670.6,151.5L670.6,151.5
		L670.6,151.5z M721.2,151C721.2,151,721.2,151,721.2,151L721.2,151L721.2,151z M736.8,133.6c-3.4,2-6.6,4.4-9.4,7.3
		c-2.7,2.8-4.9,6-6.2,9.8c-2.5-1.2-6.4-3-11.2-4.4c-4.9-1.5-10.7-2.7-16.7-2.7c-3.9,0-7.8,0.5-11.7,1.8c-3.8,1.2-7.6,3.2-11,6.2
		c-3-1.3-7.2-3-12.2-4.4c-5-1.4-10.7-2.5-16.4-2.5c-3.5,0-7,0.4-10.4,1.4c-3.3,1-6.5,2.6-9.2,5c-2.6-2-5.9-3.8-9.8-5.1
		c-4-1.3-8.5-2.1-13.5-2.1c-8,0-17.1,2.2-26.2,7.8c-2.1-0.9-6.3-2.8-11.7-4.4c-5.5-1.6-12.3-3-19.4-3.1c-4,0-8,0.4-11.9,1.6
		c-3.4,1-6.8,2.5-9.9,4.7c-4-1.9-15.4-6.4-32-6.5c-10.4,0-22.9,1.8-36.7,7.3c-12.5-4.9-24.4-6.6-34.8-6.6c-20.4,0-34.7,6.3-34.9,6.4
		c-0.2,0.1-0.3,0.2-0.4,0.3c-3.9-2-9-3.6-14.7-4.7c-5.8-1.1-12.3-1.8-18.7-1.8c-6.2,0-12.4,0.6-17.8,2.1c-2.7,0.7-5.2,1.7-7.5,2.9
		c-2.2,1.2-4.1,2.6-5.7,4.3c-2.3-1.5-6.4-4-11.7-6.1c-5.4-2.2-12-4-19.2-4c-7.4,0-15.5,2-23.1,7.4c-4.1-1.9-16-7-30.1-7
		c-8.1,0-17,1.7-25.4,6.8c-3.2-2.5-7.3-4.8-12.1-6.4c-4.8-1.6-10.3-2.7-15.9-2.7c-4.4,0-8.9,0.6-13.3,2.1c-4.4,1.4-8.6,3.7-12.5,7
		c-1.9-1.2-5.3-3-9.8-4.7c-4.6-1.6-10.3-3-16.8-3c-7.7,0-16.4,2-25.1,7.8c-2.7-1.9-6.2-4.5-10.7-6.7c-4.6-2.2-10.2-4-17.3-4
		c-6.1,0-13.1,1.3-21.4,4.5c0.4-2.1,0.7-4.5,0.7-7c0-5.9-1.4-12.9-5.2-19c-1.9-3.1-4.5-5.9-7.8-8.3c-3.2-2.3-7.1-4.1-11.8-5.3
		c1.7-2.3,3.3-5.3,4.5-8.7c1.3-3.6,2.1-7.8,2.1-12.1c0-3.7-0.6-7.5-2.2-11.1c-1.5-3.5-3.9-6.9-7.4-9.9c3.2-1,5.9-2.3,8-3.9
		c3.4-2.5,5.6-5.7,6.9-8.9c1.3-3.2,1.7-6.5,1.7-9.4c0-2.2-0.2-4.2-0.5-5.9c1.7,0.3,3.4,0.4,5.1,0.4c7.6,0,14.4-2.6,19.6-6.6
		c5-4,8.5-9.4,9.5-15.3c8.6,4.6,16.4,6.3,23.3,6.3c7,0,12.9-1.8,17.5-3.9c4.5-2.1,7.7-4.6,9.5-6.1c2,1.5,5.7,3.8,10.6,5.9
		c5,2.1,11.4,3.8,18.8,3.8c7.1,0,15.1-1.6,23.4-6c3.4,2.8,7.1,4.7,10.9,5.9c3.8,1.2,7.7,1.7,11.6,1.7c7.7,0,15.1-2,21.5-4.5
		c6.3-2.4,11.6-5.3,15-7.3c12.7,6.4,25.5,9.2,36.4,9.2c5.7,0,10.9-0.8,15.3-2.2c4.3-1.4,7.9-3.5,10.4-6.4
		c11.2,7.8,21.2,10.8,29.9,10.8c5.8,0,11-1.4,15.5-3.4c4.4-2,8.1-4.8,11.2-7.6c0.1,0,0.2,0.1,0.2,0.1c0.2,0.1,15.2,7.2,35.1,7.2
		c10.1,0,21.4-1.9,32.6-7.6c14.6,6.3,27.2,9,38.5,9c12.1,0,22.6-3.1,32.4-8c5.1,3.6,10.1,6.2,14.9,7.9c5.2,1.9,10.2,2.8,15,2.8
		c5.8,0,11.2-1.2,16.3-3.3c5-2.1,9.7-5,14.2-8.4c9.2,5.7,18.3,7.7,26.4,7.7c6.1,0,11.7-1.1,16.4-2.7c4.6-1.5,8.2-3.4,10.8-5
		c8.9,6.7,18.3,9.1,26.8,9.1c6.7,0,12.9-1.5,18-3.3c5-1.8,8.9-3.9,11.4-5.5c2.7,3,5.8,5.1,9.1,6.4c3.3,1.3,6.7,1.8,9.9,1.8
		c4.3,0,8.3-0.8,11.6-1.9c3.2-1,5.8-2.2,7.5-2.9c2.6,2.5,5.3,4.8,8.3,6.4c3.1,1.7,6.5,2.7,10.4,2.7c3.4,0,7.1-0.7,11.2-2.3
		c-0.1,1.2-0.2,2.3-0.2,3.5c0,5.1,0.9,10.6,3.4,15.1c1.3,2.3,2.9,4.3,5.1,5.8c2.1,1.4,4.6,2.3,7.5,2.5c-2,4.2-3.5,9.7-3.5,15.4
		c0,3.4,0.6,6.8,2.2,9.9c0.8,1.5,1.8,2.9,3.2,4.2c1.2,1.1,2.7,2,4.4,2.7c-2.2,2.6-4.3,6.3-5.9,10.7c-1.7,4.5-2.9,9.7-2.9,15
		c0,3.7,0.6,7.4,2,10.9c1.3,3.4,3.5,6.7,6.5,9.5C750.3,127.2,743.4,129.7,736.8,133.6z"></path>
</g>
</svg>
